<mxfile host="app.diagrams.net" modified="2022-09-22T07:55:44.988Z" agent="5.0 (Macintosh; Intel Mac OS X 10_15_7) AppleWebKit/605.1.15 (KHTML, like Gecko) Version/15.6.1 Safari/605.1.15" etag="JVwp0nwjvCGQTmiVVfn4" version="20.3.3" type="github">
  <diagram id="resuJbucNC01iMUb9vn6" name="第 1 页">
    <mxGraphModel dx="1626" dy="1229" grid="0" gridSize="10" guides="1" tooltips="1" connect="1" arrows="1" fold="1" page="0" pageScale="1" pageWidth="827" pageHeight="1169" math="0" shadow="0">
      <root>
        <mxCell id="0" />
        <mxCell id="1" parent="0" />
        <mxCell id="JQkUaQSeX6xFLT8BSFR2-9" style="edgeStyle=orthogonalEdgeStyle;rounded=0;orthogonalLoop=1;jettySize=auto;html=1;exitX=0.5;exitY=1;exitDx=0;exitDy=0;exitPerimeter=0;entryX=0.5;entryY=0;entryDx=0;entryDy=0;entryPerimeter=0;strokeColor=#CC0066;" edge="1" parent="1" source="JQkUaQSeX6xFLT8BSFR2-1" target="JQkUaQSeX6xFLT8BSFR2-8">
          <mxGeometry relative="1" as="geometry" />
        </mxCell>
        <mxCell id="JQkUaQSeX6xFLT8BSFR2-10" value="call" style="edgeLabel;html=1;align=center;verticalAlign=middle;resizable=0;points=[];" vertex="1" connectable="0" parent="JQkUaQSeX6xFLT8BSFR2-9">
          <mxGeometry x="-0.0467" relative="1" as="geometry">
            <mxPoint as="offset" />
          </mxGeometry>
        </mxCell>
        <mxCell id="JQkUaQSeX6xFLT8BSFR2-40" style="rounded=0;orthogonalLoop=1;jettySize=auto;html=1;exitX=0;exitY=0;exitDx=100;exitDy=32.9921240919884;exitPerimeter=0;entryX=0;entryY=0;entryDx=0;entryDy=30;entryPerimeter=0;strokeColor=#0000FF;" edge="1" parent="1" source="JQkUaQSeX6xFLT8BSFR2-1" target="JQkUaQSeX6xFLT8BSFR2-39">
          <mxGeometry relative="1" as="geometry" />
        </mxCell>
        <mxCell id="JQkUaQSeX6xFLT8BSFR2-45" style="edgeStyle=none;rounded=0;orthogonalLoop=1;jettySize=auto;html=1;exitX=1;exitY=0.5;exitDx=0;exitDy=0;exitPerimeter=0;strokeColor=#0000CC;entryX=0;entryY=0;entryDx=0;entryDy=15;entryPerimeter=0;" edge="1" parent="1" source="JQkUaQSeX6xFLT8BSFR2-1" target="JQkUaQSeX6xFLT8BSFR2-44">
          <mxGeometry relative="1" as="geometry" />
        </mxCell>
        <mxCell id="JQkUaQSeX6xFLT8BSFR2-1" value="parse" style="whiteSpace=wrap;html=1;shape=mxgraph.basic.isocube;isoAngle=15;fillColor=#dae8fc;strokeColor=#6c8ebf;" vertex="1" parent="1">
          <mxGeometry x="288" y="82" width="100" height="57" as="geometry" />
        </mxCell>
        <mxCell id="JQkUaQSeX6xFLT8BSFR2-4" style="edgeStyle=orthogonalEdgeStyle;rounded=0;orthogonalLoop=1;jettySize=auto;html=1;exitX=0;exitY=0;exitDx=64;exitDy=50;exitPerimeter=0;entryX=0;entryY=0;entryDx=0;entryDy=24.0078759080116;entryPerimeter=0;strokeColor=#4C0099;" edge="1" parent="1" source="JQkUaQSeX6xFLT8BSFR2-2" target="JQkUaQSeX6xFLT8BSFR2-1">
          <mxGeometry relative="1" as="geometry" />
        </mxCell>
        <mxCell id="JQkUaQSeX6xFLT8BSFR2-5" value="input" style="edgeLabel;html=1;align=center;verticalAlign=middle;resizable=0;points=[];" vertex="1" connectable="0" parent="JQkUaQSeX6xFLT8BSFR2-4">
          <mxGeometry x="-0.1154" y="2" relative="1" as="geometry">
            <mxPoint as="offset" />
          </mxGeometry>
        </mxCell>
        <mxCell id="JQkUaQSeX6xFLT8BSFR2-25" value="vv" style="edgeStyle=orthogonalEdgeStyle;rounded=0;orthogonalLoop=1;jettySize=auto;html=1;exitX=0;exitY=0;exitDx=0;exitDy=15;exitPerimeter=0;entryX=0;entryY=0;entryDx=108;entryDy=35;entryPerimeter=0;strokeColor=#0000FF;" edge="1" parent="1" source="JQkUaQSeX6xFLT8BSFR2-2" target="JQkUaQSeX6xFLT8BSFR2-15">
          <mxGeometry relative="1" as="geometry">
            <Array as="points">
              <mxPoint x="159" y="-2" />
            </Array>
          </mxGeometry>
        </mxCell>
        <mxCell id="JQkUaQSeX6xFLT8BSFR2-26" style="rounded=0;orthogonalLoop=1;jettySize=auto;html=1;exitX=0;exitY=0;exitDx=0;exitDy=15;exitPerimeter=0;entryX=0;entryY=0;entryDx=108;entryDy=35;entryPerimeter=0;strokeColor=#0000FF;" edge="1" parent="1" source="JQkUaQSeX6xFLT8BSFR2-2" target="JQkUaQSeX6xFLT8BSFR2-16">
          <mxGeometry relative="1" as="geometry" />
        </mxCell>
        <mxCell id="JQkUaQSeX6xFLT8BSFR2-27" style="edgeStyle=none;rounded=0;orthogonalLoop=1;jettySize=auto;html=1;exitX=0;exitY=0;exitDx=44;exitDy=0;exitPerimeter=0;entryX=1;entryY=1;entryDx=0;entryDy=0;entryPerimeter=0;strokeColor=#0000FF;" edge="1" parent="1" source="JQkUaQSeX6xFLT8BSFR2-2" target="JQkUaQSeX6xFLT8BSFR2-17">
          <mxGeometry relative="1" as="geometry" />
        </mxCell>
        <mxCell id="JQkUaQSeX6xFLT8BSFR2-28" style="edgeStyle=none;rounded=0;orthogonalLoop=1;jettySize=auto;html=1;exitX=0;exitY=0;exitDx=44;exitDy=0;exitPerimeter=0;entryX=1;entryY=1;entryDx=0;entryDy=0;entryPerimeter=0;strokeColor=#0000FF;" edge="1" parent="1" source="JQkUaQSeX6xFLT8BSFR2-2" target="JQkUaQSeX6xFLT8BSFR2-18">
          <mxGeometry relative="1" as="geometry" />
        </mxCell>
        <mxCell id="JQkUaQSeX6xFLT8BSFR2-29" style="edgeStyle=none;rounded=0;orthogonalLoop=1;jettySize=auto;html=1;exitX=0;exitY=0;exitDx=44;exitDy=0;exitPerimeter=0;entryX=0;entryY=0;entryDx=64;entryDy=50;entryPerimeter=0;strokeColor=#0000FF;" edge="1" parent="1" source="JQkUaQSeX6xFLT8BSFR2-2" target="JQkUaQSeX6xFLT8BSFR2-19">
          <mxGeometry relative="1" as="geometry" />
        </mxCell>
        <mxCell id="JQkUaQSeX6xFLT8BSFR2-30" style="edgeStyle=none;rounded=0;orthogonalLoop=1;jettySize=auto;html=1;exitX=0;exitY=0;exitDx=44;exitDy=0;exitPerimeter=0;strokeColor=#0000FF;" edge="1" parent="1" source="JQkUaQSeX6xFLT8BSFR2-2" target="JQkUaQSeX6xFLT8BSFR2-20">
          <mxGeometry relative="1" as="geometry" />
        </mxCell>
        <mxCell id="JQkUaQSeX6xFLT8BSFR2-31" style="edgeStyle=none;rounded=0;orthogonalLoop=1;jettySize=auto;html=1;exitX=0;exitY=0;exitDx=44;exitDy=0;exitPerimeter=0;strokeColor=#0000FF;" edge="1" parent="1" source="JQkUaQSeX6xFLT8BSFR2-2" target="JQkUaQSeX6xFLT8BSFR2-21">
          <mxGeometry relative="1" as="geometry" />
        </mxCell>
        <mxCell id="JQkUaQSeX6xFLT8BSFR2-32" style="edgeStyle=none;rounded=0;orthogonalLoop=1;jettySize=auto;html=1;exitX=0;exitY=0;exitDx=88;exitDy=0;exitPerimeter=0;entryX=0;entryY=0;entryDx=10;entryDy=40;entryPerimeter=0;strokeColor=#0000FF;" edge="1" parent="1" source="JQkUaQSeX6xFLT8BSFR2-2" target="JQkUaQSeX6xFLT8BSFR2-22">
          <mxGeometry relative="1" as="geometry" />
        </mxCell>
        <mxCell id="JQkUaQSeX6xFLT8BSFR2-33" style="edgeStyle=none;rounded=0;orthogonalLoop=1;jettySize=auto;html=1;exitX=0;exitY=0;exitDx=88;exitDy=0;exitPerimeter=0;entryX=0;entryY=0;entryDx=0;entryDy=30;entryPerimeter=0;strokeColor=#0000FF;" edge="1" parent="1" source="JQkUaQSeX6xFLT8BSFR2-2" target="JQkUaQSeX6xFLT8BSFR2-23">
          <mxGeometry relative="1" as="geometry" />
        </mxCell>
        <mxCell id="JQkUaQSeX6xFLT8BSFR2-34" style="edgeStyle=none;rounded=0;orthogonalLoop=1;jettySize=auto;html=1;exitX=0;exitY=0;exitDx=88;exitDy=0;exitPerimeter=0;entryX=0;entryY=0;entryDx=0;entryDy=15;entryPerimeter=0;strokeColor=#0000FF;" edge="1" parent="1" source="JQkUaQSeX6xFLT8BSFR2-2" target="JQkUaQSeX6xFLT8BSFR2-24">
          <mxGeometry relative="1" as="geometry" />
        </mxCell>
        <mxCell id="JQkUaQSeX6xFLT8BSFR2-2" value="&lt;font color=&quot;#000000&quot;&gt;&lt;span style=&quot;caret-color: rgb(0, 0, 0);&quot;&gt;self@LogParser&lt;/span&gt;&lt;/font&gt;" style="shape=cube;whiteSpace=wrap;html=1;boundedLbl=1;backgroundOutline=1;darkOpacity=0.05;darkOpacity2=0.1;fillColor=#f8cecc;strokeColor=#b85450;" vertex="1" parent="1">
          <mxGeometry x="159" y="-35" width="108" height="50" as="geometry" />
        </mxCell>
        <mxCell id="JQkUaQSeX6xFLT8BSFR2-6" style="edgeStyle=orthogonalEdgeStyle;rounded=0;orthogonalLoop=1;jettySize=auto;html=1;exitX=0;exitY=0;exitDx=64;exitDy=50;exitPerimeter=0;entryX=0;entryY=0;entryDx=100;entryDy=32.9921240919884;entryPerimeter=0;strokeColor=#4C0099;" edge="1" parent="1" source="JQkUaQSeX6xFLT8BSFR2-3" target="JQkUaQSeX6xFLT8BSFR2-1">
          <mxGeometry relative="1" as="geometry" />
        </mxCell>
        <mxCell id="JQkUaQSeX6xFLT8BSFR2-7" value="input" style="edgeLabel;html=1;align=center;verticalAlign=middle;resizable=0;points=[];" vertex="1" connectable="0" parent="JQkUaQSeX6xFLT8BSFR2-6">
          <mxGeometry x="-0.5068" y="1" relative="1" as="geometry">
            <mxPoint y="22" as="offset" />
          </mxGeometry>
        </mxCell>
        <mxCell id="JQkUaQSeX6xFLT8BSFR2-37" style="edgeStyle=orthogonalEdgeStyle;rounded=0;orthogonalLoop=1;jettySize=auto;html=1;exitX=0;exitY=0;exitDx=108;exitDy=35;exitPerimeter=0;entryX=0;entryY=0;entryDx=117;entryDy=37.91078518762643;entryPerimeter=0;strokeColor=#7F00FF;" edge="1" parent="1" source="JQkUaQSeX6xFLT8BSFR2-3" target="JQkUaQSeX6xFLT8BSFR2-11">
          <mxGeometry relative="1" as="geometry" />
        </mxCell>
        <mxCell id="JQkUaQSeX6xFLT8BSFR2-38" value="input" style="edgeLabel;html=1;align=center;verticalAlign=middle;resizable=0;points=[];" vertex="1" connectable="0" parent="JQkUaQSeX6xFLT8BSFR2-37">
          <mxGeometry x="0.5956" y="-3" relative="1" as="geometry">
            <mxPoint as="offset" />
          </mxGeometry>
        </mxCell>
        <mxCell id="JQkUaQSeX6xFLT8BSFR2-43" style="edgeStyle=none;rounded=0;orthogonalLoop=1;jettySize=auto;html=1;exitX=0;exitY=0;exitDx=44;exitDy=0;exitPerimeter=0;entryX=0.875;entryY=1;entryDx=0;entryDy=0;entryPerimeter=0;strokeColor=#00FF00;" edge="1" parent="1" source="JQkUaQSeX6xFLT8BSFR2-3" target="JQkUaQSeX6xFLT8BSFR2-19">
          <mxGeometry relative="1" as="geometry" />
        </mxCell>
        <mxCell id="JQkUaQSeX6xFLT8BSFR2-3" value="&lt;font color=&quot;#000000&quot;&gt;&lt;span style=&quot;caret-color: rgb(0, 0, 0);&quot;&gt;logName&lt;/span&gt;&lt;/font&gt;" style="shape=cube;whiteSpace=wrap;html=1;boundedLbl=1;backgroundOutline=1;darkOpacity=0.05;darkOpacity2=0.1;fillColor=#f8cecc;strokeColor=#b85450;" vertex="1" parent="1">
          <mxGeometry x="378" y="-22" width="108" height="50" as="geometry" />
        </mxCell>
        <mxCell id="JQkUaQSeX6xFLT8BSFR2-12" style="edgeStyle=orthogonalEdgeStyle;rounded=0;orthogonalLoop=1;jettySize=auto;html=1;exitX=0.5;exitY=1;exitDx=0;exitDy=0;exitPerimeter=0;entryX=0.5;entryY=0;entryDx=0;entryDy=0;entryPerimeter=0;strokeColor=#CC0066;" edge="1" parent="1" source="JQkUaQSeX6xFLT8BSFR2-8" target="JQkUaQSeX6xFLT8BSFR2-11">
          <mxGeometry relative="1" as="geometry" />
        </mxCell>
        <mxCell id="JQkUaQSeX6xFLT8BSFR2-13" value="Text" style="edgeLabel;html=1;align=center;verticalAlign=middle;resizable=0;points=[];" vertex="1" connectable="0" parent="JQkUaQSeX6xFLT8BSFR2-12">
          <mxGeometry x="-0.2313" y="2" relative="1" as="geometry">
            <mxPoint x="1" as="offset" />
          </mxGeometry>
        </mxCell>
        <mxCell id="JQkUaQSeX6xFLT8BSFR2-8" value="print" style="whiteSpace=wrap;html=1;shape=mxgraph.basic.isocube;isoAngle=15;fontColor=#000000;" vertex="1" parent="1">
          <mxGeometry x="185" y="186" width="100" height="57" as="geometry" />
        </mxCell>
        <mxCell id="JQkUaQSeX6xFLT8BSFR2-11" value="os.path.join" style="whiteSpace=wrap;html=1;shape=mxgraph.basic.isocube;isoAngle=15;fontColor=#000000;" vertex="1" parent="1">
          <mxGeometry x="89" y="298" width="117" height="66" as="geometry" />
        </mxCell>
        <mxCell id="JQkUaQSeX6xFLT8BSFR2-35" style="edgeStyle=orthogonalEdgeStyle;rounded=0;orthogonalLoop=1;jettySize=auto;html=1;exitX=0;exitY=0;exitDx=64;exitDy=50;exitPerimeter=0;entryX=0;entryY=0;entryDx=0;entryDy=28.089214812373573;entryPerimeter=0;strokeColor=#7F00FF;" edge="1" parent="1" source="JQkUaQSeX6xFLT8BSFR2-15" target="JQkUaQSeX6xFLT8BSFR2-11">
          <mxGeometry relative="1" as="geometry" />
        </mxCell>
        <mxCell id="JQkUaQSeX6xFLT8BSFR2-36" value="input" style="edgeLabel;html=1;align=center;verticalAlign=middle;resizable=0;points=[];" vertex="1" connectable="0" parent="JQkUaQSeX6xFLT8BSFR2-35">
          <mxGeometry x="0.3711" y="1" relative="1" as="geometry">
            <mxPoint as="offset" />
          </mxGeometry>
        </mxCell>
        <mxCell id="JQkUaQSeX6xFLT8BSFR2-15" value="&lt;font color=&quot;#000000&quot;&gt;&lt;span style=&quot;caret-color: rgb(0, 0, 0);&quot;&gt;path&lt;/span&gt;&lt;/font&gt;" style="shape=cube;whiteSpace=wrap;html=1;boundedLbl=1;backgroundOutline=1;darkOpacity=0.05;darkOpacity2=0.1;fontColor=#67AB9F;" vertex="1" parent="1">
          <mxGeometry x="-272.5" y="-37" width="108" height="50" as="geometry" />
        </mxCell>
        <mxCell id="JQkUaQSeX6xFLT8BSFR2-16" value="&lt;font color=&quot;#000000&quot;&gt;depth&lt;/font&gt;" style="shape=cube;whiteSpace=wrap;html=1;boundedLbl=1;backgroundOutline=1;darkOpacity=0.05;darkOpacity2=0.1;fontColor=#67AB9F;" vertex="1" parent="1">
          <mxGeometry x="-256.5" y="-107" width="108" height="50" as="geometry" />
        </mxCell>
        <mxCell id="JQkUaQSeX6xFLT8BSFR2-17" value="&lt;font color=&quot;#000000&quot;&gt;st&lt;/font&gt;" style="shape=cube;whiteSpace=wrap;html=1;boundedLbl=1;backgroundOutline=1;darkOpacity=0.05;darkOpacity2=0.1;fontColor=#67AB9F;" vertex="1" parent="1">
          <mxGeometry x="-139.5" y="-163" width="108" height="50" as="geometry" />
        </mxCell>
        <mxCell id="JQkUaQSeX6xFLT8BSFR2-18" value="&lt;font color=&quot;#000000&quot;&gt;&lt;span style=&quot;caret-color: rgb(0, 0, 0);&quot;&gt;maxChild&lt;/span&gt;&lt;/font&gt;" style="shape=cube;whiteSpace=wrap;html=1;boundedLbl=1;backgroundOutline=1;darkOpacity=0.05;darkOpacity2=0.1;fontColor=#67AB9F;" vertex="1" parent="1">
          <mxGeometry x="-50.5" y="-205" width="108" height="50" as="geometry" />
        </mxCell>
        <mxCell id="JQkUaQSeX6xFLT8BSFR2-19" value="&lt;font color=&quot;#000000&quot;&gt;&lt;span style=&quot;caret-color: rgb(0, 0, 0);&quot;&gt;logName&lt;/span&gt;&lt;/font&gt;" style="shape=cube;whiteSpace=wrap;html=1;boundedLbl=1;backgroundOutline=1;darkOpacity=0.05;darkOpacity2=0.1;fontColor=#67AB9F;" vertex="1" parent="1">
          <mxGeometry x="71.5" y="-246" width="108" height="50" as="geometry" />
        </mxCell>
        <mxCell id="JQkUaQSeX6xFLT8BSFR2-20" value="&lt;font color=&quot;#000000&quot;&gt;&lt;span style=&quot;caret-color: rgb(0, 0, 0);&quot;&gt;savePath&lt;/span&gt;&lt;/font&gt;" style="shape=cube;whiteSpace=wrap;html=1;boundedLbl=1;backgroundOutline=1;darkOpacity=0.05;darkOpacity2=0.1;fontColor=#67AB9F;" vertex="1" parent="1">
          <mxGeometry x="201.5" y="-241" width="108" height="50" as="geometry" />
        </mxCell>
        <mxCell id="JQkUaQSeX6xFLT8BSFR2-21" value="&lt;font color=&quot;#000000&quot;&gt;&lt;span style=&quot;caret-color: rgb(0, 0, 0);&quot;&gt;df_log&lt;/span&gt;&lt;/font&gt;" style="shape=cube;whiteSpace=wrap;html=1;boundedLbl=1;backgroundOutline=1;darkOpacity=0.05;darkOpacity2=0.1;fontColor=#67AB9F;" vertex="1" parent="1">
          <mxGeometry x="329.5" y="-213" width="108" height="50" as="geometry" />
        </mxCell>
        <mxCell id="JQkUaQSeX6xFLT8BSFR2-22" value="&lt;font color=&quot;#000000&quot;&gt;&lt;span style=&quot;caret-color: rgb(0, 0, 0);&quot;&gt;log_format&lt;/span&gt;&lt;/font&gt;" style="shape=cube;whiteSpace=wrap;html=1;boundedLbl=1;backgroundOutline=1;darkOpacity=0.05;darkOpacity2=0.1;fontColor=#67AB9F;" vertex="1" parent="1">
          <mxGeometry x="442.5" y="-185" width="108" height="50" as="geometry" />
        </mxCell>
        <mxCell id="JQkUaQSeX6xFLT8BSFR2-23" value="&lt;font color=&quot;#000000&quot;&gt;&lt;span style=&quot;caret-color: rgb(0, 0, 0);&quot;&gt;rex&lt;/span&gt;&lt;/font&gt;" style="shape=cube;whiteSpace=wrap;html=1;boundedLbl=1;backgroundOutline=1;darkOpacity=0.05;darkOpacity2=0.1;fontColor=#67AB9F;" vertex="1" parent="1">
          <mxGeometry x="523.5" y="-126" width="108" height="50" as="geometry" />
        </mxCell>
        <mxCell id="JQkUaQSeX6xFLT8BSFR2-24" value="&lt;font color=&quot;#000000&quot;&gt;&lt;span style=&quot;caret-color: rgb(0, 0, 0);&quot;&gt;keepPrara&lt;/span&gt;&lt;/font&gt;" style="shape=cube;whiteSpace=wrap;html=1;boundedLbl=1;backgroundOutline=1;darkOpacity=0.05;darkOpacity2=0.1;fontColor=#67AB9F;" vertex="1" parent="1">
          <mxGeometry x="590.5" y="-60" width="108" height="50" as="geometry" />
        </mxCell>
        <mxCell id="JQkUaQSeX6xFLT8BSFR2-42" value="return" style="edgeStyle=none;rounded=0;orthogonalLoop=1;jettySize=auto;html=1;exitX=0;exitY=0;exitDx=108;exitDy=20;exitPerimeter=0;entryX=0.313;entryY=0.744;entryDx=0;entryDy=0;entryPerimeter=0;strokeColor=#FF0080;startArrow=classic;startFill=1;endArrow=none;endFill=0;" edge="1" parent="1" source="JQkUaQSeX6xFLT8BSFR2-39" target="JQkUaQSeX6xFLT8BSFR2-41">
          <mxGeometry relative="1" as="geometry" />
        </mxCell>
        <mxCell id="JQkUaQSeX6xFLT8BSFR2-39" value="&lt;font color=&quot;#000000&quot;&gt;&lt;span style=&quot;caret-color: rgb(0, 0, 0);&quot;&gt;startTime&lt;/span&gt;&lt;/font&gt;" style="shape=cube;whiteSpace=wrap;html=1;boundedLbl=1;backgroundOutline=1;darkOpacity=0.05;darkOpacity2=0.1;fontColor=#67AB9F;" vertex="1" parent="1">
          <mxGeometry x="557" y="150" width="108" height="50" as="geometry" />
        </mxCell>
        <mxCell id="JQkUaQSeX6xFLT8BSFR2-41" value="datetime.now()" style="whiteSpace=wrap;html=1;shape=mxgraph.basic.isocube;isoAngle=15;fontColor=#000000;" vertex="1" parent="1">
          <mxGeometry x="684" y="76" width="144" height="78" as="geometry" />
        </mxCell>
        <mxCell id="JQkUaQSeX6xFLT8BSFR2-44" value="&lt;font color=&quot;#000000&quot;&gt;&lt;span style=&quot;caret-color: rgb(0, 0, 0);&quot;&gt;rootNode&lt;/span&gt;&lt;/font&gt;" style="shape=cube;whiteSpace=wrap;html=1;boundedLbl=1;backgroundOutline=1;darkOpacity=0.05;darkOpacity2=0.1;fontColor=#67AB9F;" vertex="1" parent="1">
          <mxGeometry x="557" y="248" width="108" height="50" as="geometry" />
        </mxCell>
        <mxCell id="JQkUaQSeX6xFLT8BSFR2-46" value="return" style="edgeStyle=none;rounded=0;orthogonalLoop=1;jettySize=auto;html=1;exitX=0;exitY=0;exitDx=108;exitDy=20;exitPerimeter=0;entryX=0.313;entryY=0.744;entryDx=0;entryDy=0;entryPerimeter=0;strokeColor=#FF0080;startArrow=classic;startFill=1;endArrow=none;endFill=0;" edge="1" parent="1" target="JQkUaQSeX6xFLT8BSFR2-47">
          <mxGeometry relative="1" as="geometry">
            <mxPoint x="667" y="272" as="sourcePoint" />
          </mxGeometry>
        </mxCell>
        <mxCell id="JQkUaQSeX6xFLT8BSFR2-47" value="Node()" style="whiteSpace=wrap;html=1;shape=mxgraph.basic.isocube;isoAngle=15;fontColor=#000000;" vertex="1" parent="1">
          <mxGeometry x="686" y="178" width="144" height="78" as="geometry" />
        </mxCell>
        <mxCell id="JQkUaQSeX6xFLT8BSFR2-50" style="edgeStyle=none;rounded=0;orthogonalLoop=1;jettySize=auto;html=1;exitX=0;exitY=0;exitDx=0;exitDy=15;exitPerimeter=0;entryX=0.895;entryY=0.509;entryDx=0;entryDy=0;entryPerimeter=0;strokeColor=#0000CC;startArrow=classic;startFill=1;endArrow=none;endFill=0;" edge="1" parent="1" source="JQkUaQSeX6xFLT8BSFR2-48" target="JQkUaQSeX6xFLT8BSFR2-1">
          <mxGeometry relative="1" as="geometry" />
        </mxCell>
        <mxCell id="JQkUaQSeX6xFLT8BSFR2-54" style="edgeStyle=none;rounded=0;orthogonalLoop=1;jettySize=auto;html=1;exitX=0;exitY=0;exitDx=133;exitDy=35;exitPerimeter=0;entryX=0;entryY=0.5;entryDx=0;entryDy=0;strokeColor=#660000;startArrow=classic;startFill=1;endArrow=none;endFill=0;" edge="1" parent="1" source="JQkUaQSeX6xFLT8BSFR2-48" target="JQkUaQSeX6xFLT8BSFR2-51">
          <mxGeometry relative="1" as="geometry" />
        </mxCell>
        <mxCell id="JQkUaQSeX6xFLT8BSFR2-48" value="&lt;div style=&quot;text-align: start; color: rgb(212, 212, 212); background-color: rgb(30, 30, 30); font-family: Menlo, Monaco, &amp;quot;Courier New&amp;quot;, monospace; line-height: 18px;&quot;&gt;        logCluL&lt;/div&gt;" style="shape=cube;whiteSpace=wrap;html=1;boundedLbl=1;backgroundOutline=1;darkOpacity=0.05;darkOpacity2=0.1;fontColor=#67AB9F;" vertex="1" parent="1">
          <mxGeometry x="561" y="348" width="133" height="50" as="geometry" />
        </mxCell>
        <mxCell id="JQkUaQSeX6xFLT8BSFR2-51" value="[ ]" style="ellipse;whiteSpace=wrap;html=1;" vertex="1" parent="1">
          <mxGeometry x="754" y="355" width="71" height="48" as="geometry" />
        </mxCell>
        <mxCell id="JQkUaQSeX6xFLT8BSFR2-57" value="call" style="edgeStyle=none;rounded=0;orthogonalLoop=1;jettySize=auto;html=1;exitX=0.5;exitY=0;exitDx=0;exitDy=0;exitPerimeter=0;entryX=0;entryY=0;entryDx=10;entryDy=40;entryPerimeter=0;strokeColor=#FF0080;startArrow=classic;startFill=1;endArrow=none;endFill=0;" edge="1" parent="1" source="JQkUaQSeX6xFLT8BSFR2-55" target="JQkUaQSeX6xFLT8BSFR2-2">
          <mxGeometry relative="1" as="geometry" />
        </mxCell>
        <mxCell id="JQkUaQSeX6xFLT8BSFR2-55" value="loadData()" style="whiteSpace=wrap;html=1;shape=mxgraph.basic.isocube;isoAngle=15;fontColor=#000000;" vertex="1" parent="1">
          <mxGeometry x="-21" y="73" width="117" height="66" as="geometry" />
        </mxCell>
      </root>
    </mxGraphModel>
  </diagram>
</mxfile>
